PathFileType	4	(X/Y/Z)	C:/Users/opensim2020/Desktop/walking_exp_matlab/subject01_walking09_straight_03.trc	
DataRate	CameraRate	NumFrames	NumMarkers	Units	OrigDataRate	OrigDataStartFrame	OrigNumFrames	
100.00	100.00	4	43	mm	100.00	2844	348	
Frame#	Time	LFHD			RFHD			LBHD			RBHD			C7			T10			CLAV			STRN			RBAK			LSHO			LUPA			LELB			LFRM			LWRA			LWRB			LFIN			RSHO			RUPA			RELB			RFRM			RWRA			RWRB			RFIN			LASI			RASI			LPSI			RPSI			LTHI			LKNE			LTIB			LANK			LHEE			LTOE			RTHI			RKNE			RTIB			RANK			RHEE			RTOE			*39			*40			*41			*42			
		X1	Y1	Z1	X2	Y2	Z2	X3	Y3	Z3	X4	Y4	Z4	X5	Y5	Z5	X6	Y6	Z6	X7	Y7	Z7	X8	Y8	Z8	X9	Y9	Z9	X10	Y10	Z10	X11	Y11	Z11	X12	Y12	Z12	X13	Y13	Z13	X14	Y14	Z14	X15	Y15	Z15	X16	Y16	Z16	X17	Y17	Z17	X18	Y18	Z18	X19	Y19	Z19	X20	Y20	Z20	X21	Y21	Z21	X22	Y22	Z22	X23	Y23	Z23	X24	Y24	Z24	X25	Y25	Z25	X26	Y26	Z26	X27	Y27	Z27	X28	Y28	Z28	X29	Y29	Z29	X30	Y30	Z30	X31	Y31	Z31	X32	Y32	Z32	X33	Y33	Z33	X34	Y34	Z34	X35	Y35	Z35	X36	Y36	Z36	X37	Y37	Z37	X38	Y38	Z38	X39	Y39	Z39	X40	Y40	Z40	X41	Y41	Z41	X42	Y42	Z42	X43	Y43	Z43	

1	0.000	-1047.59045	-1127.05334	1678.01477	-933.84943	-1113.21106	1687.81519	-1038.07898	-1227.04138	1602.92676	-918.11572	-1214.67529	1610.56641	-992.98676	-1232.81030	1432.88062	-981.84930	-1267.97705	1140.19299	-998.21423	-1087.46021	1367.01379	-1007.24664	-1046.58960	1209.62610	-911.39526	-1282.99768	1238.46729	-1156.36792	-1155.39099	1396.61169	-1240.79956	-1197.89429	1215.92407	-1246.30066	-1211.49292	1064.15564	-1268.00830	-1169.09351	956.26941	-1244.35010	-1088.71423	843.93427	-1271.85168	-1141.46826	836.95966	-1279.13794	-1091.06348	769.12189	-844.41791	-1143.60413	1390.69934	-739.65973	-1181.50903	1188.18274	-735.49335	-1166.48779	1062.96252	-710.85345	-1110.81201	953.82642	-741.47137	-1007.09259	859.44525	-698.26221	-1045.55859	850.40405	-705.77777	-991.14319	783.16602	-1096.98669	-1100.93689	935.38617	-879.22290	-1095.13379	930.32904	-1041.77771	-1285.77722	945.71069	-896.74609	-1281.05957	947.47668	-1172.54456	-1052.62244	620.98199	-1161.92603	-1031.41101	488.00977	-1170.94800	-1108.73071	315.90219	-1125.69604	-1164.34082	103.27523	-1063.99414	-1200.76074	74.67730	-1163.72620	-1035.92651	47.94307	-838.40179	-1152.13708	596.58295	-870.02368	-1147.18250	438.52243	-868.17096	-1201.99780	269.68765	-927.59424	-1228.67981	67.72697	-978.43518	-1277.75500	29.64995	-930.64172	-1087.71509	30.18410	-956.70197	-1134.61755	1716.98364	-3101.90674	1973.13196	1023.40393	-3140.67432	2012.46204	1021.96368			 
2	0.010	-1047.55762	-1121.58069	1677.80286	-934.84631	-1107.96265	1687.47681	-1038.16626	-1221.65295	1602.72620	-918.19080	-1209.58057	1610.40442	-992.84509	-1227.52612	1432.77002	-981.76697	-1263.12866	1140.21204	-998.38721	-1082.30164	1366.76294	-1006.91016	-1041.57385	1209.31323	-911.16364	-1278.04565	1238.57983	-1156.29053	-1150.14417	1396.31787	-1241.32141	-1190.41223	1214.51477	-1245.55591	-1207.35803	1063.86475	-1267.36182	-1165.89722	955.58185	-1243.68726	-1086.66431	842.63611	-1271.13281	-1139.46948	836.18201	-1278.50513	-1089.75684	767.74762	-844.31055	-1138.26160	1390.70349	-739.35376	-1176.07983	1188.18628	-734.86902	-1160.94189	1062.88562	-710.65625	-1104.03381	954.38934	-741.63104	-998.96472	861.42303	-698.41180	-1037.23218	851.74207	-706.06598	-982.07983	785.32074	-1096.76379	-1096.01257	935.34839	-879.03229	-1090.82336	929.95856	-1042.13062	-1281.00330	945.47125	-897.13794	-1276.70972	947.15344	-1172.50659	-1046.66199	621.27972	-1161.44031	-1024.43176	488.44409	-1171.07092	-1096.45410	313.98740	-1126.15540	-1145.07471	99.31562	-1065.00513	-1181.40857	69.82393	-1162.19971	-1014.01508	47.93834	-838.56140	-1148.82837	596.15802	-870.06409	-1145.09167	438.16351	-868.15216	-1200.59460	269.75955	-927.65125	-1228.49744	67.80427	-978.54260	-1277.44690	29.46145	-930.67810	-1087.74634	30.18244	-956.67371	-1129.30859	1716.87097	-3101.95313	1973.17236	1023.47363	-3140.64429	2012.50110	1022.16693			 
3	0.020	-1047.73096	-1116.26282	1677.57971	-935.05334	-1102.73962	1687.17004	-1038.35071	-1216.37830	1602.49829	-918.39972	-1204.36804	1610.22668	-992.83295	-1222.14819	1432.46936	-981.83344	-1258.22400	1140.15015	-997.69550	-1077.06238	1366.50549	-1006.62994	-1036.52551	1209.00659	-911.00964	-1273.04456	1238.57800	-1156.26990	-1144.92615	1396.00964	-1240.99939	-1185.72668	1214.09082	-1244.84302	-1203.21814	1063.69592	-1266.60828	-1162.76221	955.16260	-1243.05884	-1084.47498	841.31213	-1270.64966	-1137.39551	835.50842	-1277.28503	-1088.19360	766.25739	-844.27710	-1132.91748	1390.38574	-739.05469	-1170.64880	1188.21045	-734.35632	-1155.45703	1062.88647	-710.44293	-1097.50537	955.02661	-741.96356	-991.04742	863.34222	-698.72388	-1029.45715	853.08307	-706.55933	-972.86725	787.46973	-1096.62842	-1091.02075	935.34198	-878.89679	-1086.42236	929.61932	-1042.49988	-1276.23694	945.24579	-897.48627	-1272.35168	946.86621	-1172.52942	-1040.83960	621.54370	-1161.01160	-1017.94342	488.68198	-1171.24976	-1084.41504	312.18668	-1126.71729	-1125.83582	95.74371	-1066.03662	-1161.92749	65.37119	-1160.84973	-992.52118	48.37116	-838.69458	-1145.57495	595.81268	-870.21747	-1142.27856	437.72818	-868.24493	-1199.16528	269.67923	-927.72388	-1228.93872	68.20176	-978.63757	-1277.31104	29.45237	-930.71661	-1087.57227	30.08699	-956.78442	-1123.96350	1716.66333	-3101.90430	1973.04041	1023.32135	-3140.76904	2012.47925	1022.04407			 
4	0.030	-1047.93286	-1110.84253	1677.24243	-935.13141	-1097.53516	1686.95471	-1038.67261	-1210.93262	1602.20239	-918.66101	-1199.19141	1610.01685	-992.86853	-1216.80188	1432.27722	-981.95355	-1253.29956	1139.97400	-998.25403	-1071.62659	1366.23206	-1006.44952	-1031.46069	1208.68005	-910.89874	-1267.99878	1238.56335	-1156.31921	-1139.71082	1395.68811	-1240.73730	-1181.00427	1213.66296	-1244.19873	-1198.97913	1063.40784	-1266.02539	-1159.32703	954.44885	-1242.52722	-1082.13977	839.95856	-1269.95874	-1135.22083	834.73132	-1276.80249	-1086.72534	765.11853	-844.39075	-1127.46155	1390.26636	-738.84406	-1165.13831	1188.16174	-733.88995	-1149.86987	1062.80298	-710.41986	-1090.87268	955.41772	-742.26587	-983.18872	865.20233	-699.00079	-1020.97662	854.27362	-707.10919	-963.91437	789.47003	-1096.53552	-1085.98706	935.18622	-878.76306	-1082.01880	929.23651	-1042.88184	-1271.32605	944.99341	-897.79425	-1268.53833	947.02563	-1172.56006	-1035.52161	621.46906	-1160.59045	-1011.73822	488.78949	-1171.41724	-1072.60254	310.34717	-1127.39392	-1106.74731	92.41890	-1067.25342	-1142.80493	61.20576	-1159.27637	-971.19141	49.44593	-839.00317	-1142.00769	595.24609	-870.37408	-1139.96680	437.38794	-868.28394	-1197.90125	269.76157	-927.74554	-1228.64185	68.19315	-978.71167	-1277.21301	29.53368	-930.77094	-1087.58960	30.04673	-957.21844	-1118.95398	1716.03833	-3101.74268	1973.06885	1023.40924	-3140.73315	2012.44678	1022.00623			 
